<svg width="25" height="24" viewBox="0 0 25 24" fill="none" xmlns="http://www.w3.org/2000/svg">
  <g clip-path="url(#clip0_292_73741)">
    <path
      d="M23.1568 3.7168H23.9568C23.9568 3.27497 23.5986 2.9168 23.1568 2.9168V3.7168ZM23.1568 7.29941V8.09941C23.5986 8.09941 23.9568 7.74124 23.9568 7.29941H23.1568ZM2.67432 3.7168V2.9168C2.23249 2.9168 1.87432 3.27497 1.87432 3.7168H2.67432ZM2.67432 7.29941H1.87432C1.87432 7.74124 2.23249 8.09941 2.67432 8.09941V7.29941ZM22.3568 3.7168V7.29941H23.9568V3.7168H22.3568ZM23.1568 6.49941H20.1391V8.09941H23.1568V6.49941ZM17.4322 12.0778C17.4502 11.9389 17.5504 11.6457 17.8177 11.3919C18.0654 11.1566 18.5002 10.9137 19.2677 10.9137V9.31367C18.1245 9.31367 17.2849 9.69124 16.7159 10.2317C16.1665 10.7535 15.9076 11.3911 15.8454 11.8728L17.4322 12.0778ZM12.9156 4.5168H23.1568V2.9168H12.9156V4.5168ZM20.1391 6.49941H12.9156V8.09941H20.1391V6.49941ZM16.6388 11.1753H14.9028V12.7753H16.6388V11.1753ZM14.9028 11.1753H12.9156V12.7753H14.9028V11.1753ZM15.7028 21.4891V11.9753H14.1028V21.4891H15.7028ZM23.9568 11.9566V11.1384H22.3568V11.9566H23.9568ZM19.3004 21.4891V14.905H17.7004V21.4891H19.3004ZM19.3004 14.905V14.8107H17.7004V14.905H19.3004ZM23.9568 11.1384C23.9568 8.94682 22.4576 7.03963 20.328 6.52204L19.9501 8.07678C21.3625 8.42005 22.3568 9.68492 22.3568 11.1384H23.9568ZM15.8388 11.9753C15.8388 13.5918 16.7925 14.9823 18.1585 15.6282L18.8424 14.1817C18.0108 13.7885 17.4388 12.9459 17.4388 11.9753H15.8388ZM18.1585 15.6282C18.6842 15.8768 19.2715 16.0156 19.8884 16.0156V14.4156C19.5134 14.4156 19.1593 14.3316 18.8424 14.1817L18.1585 15.6282ZM19.8884 16.0156C22.1272 16.0156 23.9568 14.2013 23.9568 11.9566H22.3568C22.3568 13.3117 21.2495 14.4156 19.8884 14.4156V16.0156ZM1.87432 3.7168V7.29941H3.47432V3.7168H1.87432ZM2.67432 8.09941H5.69202V6.49941H2.67432V8.09941ZM9.98569 11.8728C9.92346 11.3911 9.66464 10.7535 9.11521 10.2317C8.54614 9.69124 7.70656 9.31367 6.56335 9.31367V10.9137C7.33091 10.9137 7.76571 11.1566 8.01337 11.3919C8.28068 11.6457 8.38093 11.9389 8.39887 12.0778L9.98569 11.8728ZM12.9156 2.9168H2.67432V4.5168H12.9156V2.9168ZM5.69202 8.09941H12.9156V6.49941H5.69202V8.09941ZM9.19228 12.7753H10.9283V11.1753H9.19228V12.7753ZM10.9283 12.7753H12.9156V11.1753H10.9283V12.7753ZM11.7283 21.4891V11.9753H10.1283V21.4891H11.7283ZM3.47432 11.9566V11.1384H1.87432V11.9566H3.47432ZM8.13065 21.4891V14.905H6.53065V21.4891H8.13065ZM8.13065 14.905V14.8107H6.53065V14.905H8.13065ZM3.47432 11.1384C3.47432 9.68492 4.46859 8.42005 5.88096 8.07678L5.50309 6.52204C3.3735 7.03963 1.87432 8.94682 1.87432 11.1384H3.47432ZM8.39228 11.9753C8.39228 12.9459 7.82027 13.7885 6.98867 14.1817L7.67263 15.6282C9.03855 14.9823 9.99228 13.5918 9.99228 11.9753H8.39228ZM6.98867 14.1817C6.67184 14.3316 6.31772 14.4156 5.94265 14.4156V16.0156C6.5596 16.0156 7.14685 15.8768 7.67263 15.6282L6.98867 14.1817ZM5.94265 14.4156C4.58161 14.4156 3.47432 13.3117 3.47432 11.9566H1.87432C1.87432 14.2013 3.70393 16.0156 5.94265 16.0156V14.4156Z"
      fill="#A6A6A6"/>
  </g>
  <defs>
    <clipPath id="clip0_292_73741">
      <rect width="24" height="24" fill="white" transform="translate(0.5)"/>
    </clipPath>
  </defs>
</svg>
