<svg width="16" height="16" viewBox="0 0 16 16" fill="none" xmlns="http://www.w3.org/2000/svg">
  <path fill-rule="evenodd" clip-rule="evenodd"
        d="M8.78594 1.3335H7.04785V14.6668H8.78594C11.7419 14.6668 14.0002 11.5949 14.0002 8.00016C14.0002 4.40544 11.7419 1.3335 8.78594 1.3335Z"
        fill="#E6B900"/>
  <path fill-rule="evenodd" clip-rule="evenodd"
        d="M7.21425 1.3335C4.25826 1.3335 2 4.40544 2 8.00016C2 11.5949 4.25826 14.6668 7.21425 14.6668C10.1702 14.6668 12.4285 11.5949 12.4285 8.00016C12.4285 4.40544 10.1702 1.3335 7.21425 1.3335Z"
        fill="#FFCF08"/>
  <path
    d="M7.08489 4.81674C7.13151 4.69911 7.29648 4.69911 7.34309 4.81674L8.01887 6.52202C8.0371 6.56802 8.078 6.60091 8.1265 6.60857L9.74874 6.86453C9.85629 6.8815 9.90369 7.01099 9.83291 7.09446L8.64556 8.49479C8.61944 8.52558 8.6078 8.56627 8.61361 8.60637L8.88993 10.5118C8.90697 10.6293 8.78079 10.7137 8.68022 10.6521L7.28612 9.79829C7.2418 9.77115 7.18619 9.77115 7.14186 9.79829L5.74776 10.6521C5.6472 10.7137 5.52102 10.6293 5.53805 10.5118L5.81437 8.60637C5.82019 8.56627 5.80854 8.52558 5.78243 8.49479L4.59508 7.09446C4.5243 7.01099 4.5717 6.8815 4.67924 6.86453L6.30149 6.60857C6.34998 6.60091 6.39089 6.56802 6.40912 6.52202L7.08489 4.81674Z"
    fill="#CCA500"/>
</svg>
