<svg
  width="131"
  height="36"
  viewBox="0 0 131 36"
  fill="none"
  xmlns="http://www.w3.org/2000/svg"
>
  <g clip-path="url(#clip0_257_56355)">
    <path
      d="M0 11.0437C0 9.36273 1.36273 8 3.04375 8H16.9563C18.6373 8 20 9.36273 20 11.0437V24.9563C20 26.6373 18.6373 28 16.9563 28H3.04375C1.36273 28 0 26.6373 0 24.9563V11.0437Z"
      fill="#FF3000"
    />
    <path
      d="M15.0645 24.5625C14.1717 24.5625 13.5567 24.0731 13.5567 22.5572V22.2312H14.5487V22.5574C14.5487 23.3633 14.767 23.5839 15.0645 23.5839C15.362 23.5839 15.5705 23.3633 15.5705 22.9891C15.5705 22.5189 15.5011 22.26 14.8066 21.7706C13.993 21.2046 13.6161 20.6001 13.6161 19.823C13.6161 18.8348 14.1517 18.2399 15.0645 18.2399C15.6993 18.2399 16.5427 18.4319 16.5427 20.0436V20.4178H15.5507V20.0436C15.5507 19.4104 15.3424 19.1993 15.0645 19.1993C14.767 19.1993 14.6081 19.4104 14.6081 19.7845C14.6081 20.1682 14.6973 20.4848 15.3918 21.003C16.255 21.6458 16.5625 22.1543 16.5625 22.9889C16.5625 23.8235 16.1655 24.5625 15.0645 24.5625ZM11.6815 24.5625C10.7887 24.5625 10.1737 24.1499 10.1737 22.5572V22.2312H11.1657V22.5574C11.1657 23.3633 11.384 23.5839 11.6815 23.5839C11.979 23.5839 12.1875 23.3633 12.1875 22.9891C12.1875 22.5189 12.1181 22.26 11.4236 21.7706C10.6101 21.2046 10.2331 20.6001 10.2331 19.823C10.2331 18.8348 10.7687 18.2399 11.6815 18.2399C12.3164 18.2399 13.1597 18.4319 13.1597 20.0436V20.4178H12.1677V20.0436C12.1677 19.4104 11.9594 19.1993 11.6815 19.1993C11.384 19.1993 11.2251 19.4104 11.2251 19.7845C11.2251 20.1682 11.3144 20.4848 12.0088 21.003C12.872 21.6458 13.1795 22.1543 13.1795 22.9889C13.1795 23.8235 12.7827 24.5625 11.6815 24.5625ZM15.0645 17.7601C14.1717 17.7601 13.5567 17.2707 13.5567 15.7548V15.4287H14.5487V15.755C14.5487 16.5609 14.767 16.7815 15.0645 16.7815C15.362 16.7815 15.5705 16.5609 15.5705 16.1867C15.5705 15.7165 15.5011 15.4575 14.8066 14.9682C13.993 14.4022 13.6161 13.7977 13.6161 13.0206C13.6161 12.0323 14.1517 11.4375 15.0645 11.4375C15.6993 11.4375 16.5427 11.6295 16.5427 13.2412V13.6154H15.5507V13.2412C15.5507 12.608 15.3424 12.3969 15.0645 12.3969C14.767 12.3969 14.6081 12.608 14.6081 12.9821C14.6081 13.3658 14.6973 13.6824 15.3918 14.2006C16.255 14.8434 16.5625 15.3519 16.5625 16.1865C16.5625 17.0211 16.1655 17.7601 15.0645 17.7601ZM11.6815 17.7601C10.7887 17.7601 10.1737 17.3475 10.1737 15.7548V15.4287H11.1657V15.755C11.1657 16.5609 11.384 16.7815 11.6815 16.7815C11.979 16.7815 12.1875 16.5609 12.1875 16.1867C12.1875 15.7165 12.1181 15.4575 11.4236 14.9682C10.6101 14.4022 10.2331 13.7977 10.2331 13.0206C10.2331 12.0323 10.7687 11.4375 11.6815 11.4375C12.3164 11.4375 13.1597 11.6295 13.1597 13.2412V13.6154H12.1677V13.2412C12.1677 12.608 11.9594 12.3969 11.6815 12.3969C11.384 12.3969 11.2251 12.608 11.2251 12.9821C11.2251 13.3658 11.3144 13.6824 12.0088 14.2006C12.872 14.8434 13.1795 15.3519 13.1795 16.1865C13.1795 17.0211 12.7827 17.7601 11.6815 17.7601ZM4.4297 22.2312H4.62817C5.06475 22.2312 5.28285 22.02 5.28285 21.0415V20.485C5.28285 19.5064 5.06456 19.2953 4.62817 19.2953H4.4297V22.2312ZM4.4297 24.4665H3.43768V18.3357H4.62817C5.9179 18.3357 6.27505 19.0457 6.27505 20.389V21.1373C6.27505 22.4804 5.9179 23.1906 4.62817 23.1906H4.4297V24.4665ZM4.62799 14.4693H4.42951V12.4929H4.62799C5.07438 12.4929 5.28266 12.6368 5.28266 13.3083V13.6537C5.28285 14.3254 5.07456 14.4693 4.62799 14.4693ZM6.46334 17.6643L5.69943 15.1121C6.06657 14.8147 6.27486 14.3254 6.27486 13.721V13.2413C6.27486 12.1188 5.75905 11.5335 4.62799 11.5335H3.4375V17.6643H4.42951V15.4287H4.55856C4.60818 15.4287 4.67761 15.4287 4.78666 15.419L5.3819 17.6641L6.46334 17.6643ZM7.59421 22.2312L8.10022 19.2953H8.17964L8.68546 22.2312H7.59421ZM9.06261 24.4665H10.0546L8.95337 18.3357H7.32649L6.21543 24.4665H7.20744L7.43554 23.1906H8.84432L9.06261 24.4665ZM8.23908 17.7601C7.01878 17.7601 6.79068 16.8678 6.79068 15.7836V11.5335H7.8225V15.8701C7.8225 16.6281 7.96136 16.8007 8.23908 16.8007C8.5168 16.8007 8.65565 16.6281 8.65565 15.8701V11.5335H9.68747V15.7838C9.68747 16.8678 9.45937 17.7601 8.23908 17.7601Z"
      fill="white"
    />
    <rect x="28" y="8" width="2" height="20" rx="1" fill="#D9D9D9"/>
    <path
      d="M42.5404 8.22346C44.0913 8.22346 45.2404 8.63315 45.9878 9.45251C46.7539 10.2719 47.1369 11.473 47.1369 13.0559V15.5978C47.1369 17.1806 46.7539 18.3818 45.9878 19.2011C45.2404 20.0205 44.0913 20.4302 42.5404 20.4302H41.083V27.7765H38V8.22346H42.5404ZM41.083 11.0168V17.6369H42.5404C43.0262 17.6369 43.3999 17.5065 43.6615 17.2458C43.9231 16.9851 44.0539 16.5009 44.0539 15.7933V12.8603C44.0539 12.1527 43.9231 11.6685 43.6615 11.4078C43.3999 11.1471 43.0262 11.0168 42.5404 11.0168H41.083Z"
      fill="#FF3000"
    />
    <path
      d="M51.3957 23.2793C51.3957 23.987 51.5359 24.4898 51.8162 24.7877C52.1151 25.067 52.5075 25.2067 52.9933 25.2067C53.4791 25.2067 53.8622 25.067 54.1424 24.7877C54.4414 24.4898 54.5909 23.987 54.5909 23.2793V12.7207C54.5909 12.013 54.4414 11.5196 54.1424 11.2402C53.8622 10.9423 53.4791 10.7933 52.9933 10.7933C52.5075 10.7933 52.1151 10.9423 51.8162 11.2402C51.5359 11.5196 51.3957 12.013 51.3957 12.7207V23.2793ZM48.3127 12.9162C48.3127 11.3333 48.7145 10.1229 49.5179 9.28491C50.3214 8.4283 51.4798 8 52.9933 8C54.5068 8 55.6652 8.4283 56.4687 9.28491C57.2721 10.1229 57.6739 11.3333 57.6739 12.9162V23.0838C57.6739 24.6667 57.2721 25.8864 56.4687 26.743C55.6652 27.581 54.5068 28 52.9933 28C51.4798 28 50.3214 27.581 49.5179 26.743C48.7145 25.8864 48.3127 24.6667 48.3127 23.0838V12.9162Z"
      fill="#FF3000"
    />
    <path
      d="M68.6181 20.486V23.0838C68.6181 24.6667 68.2257 25.8864 67.441 26.743C66.6749 27.581 65.5351 28 64.0216 28C62.5081 28 61.359 27.581 60.5743 26.743C59.8082 25.8864 59.4251 24.6667 59.4251 23.0838V12.9162C59.4251 11.3333 59.8082 10.1229 60.5743 9.28491C61.359 8.4283 62.5081 8 64.0216 8C65.5351 8 66.6749 8.4283 67.441 9.28491C68.2257 10.1229 68.6181 11.3333 68.6181 12.9162V14.8156H65.7033V12.7207C65.7033 12.013 65.5538 11.5196 65.2548 11.2402C64.9746 10.9423 64.5915 10.7933 64.1057 10.7933C63.6199 10.7933 63.2275 10.9423 62.9286 11.2402C62.6483 11.5196 62.5081 12.013 62.5081 12.7207V23.2793C62.5081 23.987 62.6483 24.4804 62.9286 24.7598C63.2275 25.0391 63.6199 25.1788 64.1057 25.1788C64.5915 25.1788 64.9746 25.0391 65.2548 24.7598C65.5538 24.4804 65.7033 23.987 65.7033 23.2793V20.486H68.6181Z"
      fill="#FF3000"
    />
    <path
      d="M79.4294 20.486V23.0838C79.4294 24.6667 79.037 25.8864 78.2523 26.743C77.4862 27.581 76.3464 28 74.8329 28C73.3195 28 72.1703 27.581 71.3856 26.743C70.6195 25.8864 70.2365 24.6667 70.2365 23.0838V12.9162C70.2365 11.3333 70.6195 10.1229 71.3856 9.28491C72.1703 8.4283 73.3195 8 74.8329 8C76.3464 8 77.4862 8.4283 78.2523 9.28491C79.037 10.1229 79.4294 11.3333 79.4294 12.9162V14.8156H76.5146V12.7207C76.5146 12.013 76.3651 11.5196 76.0661 11.2402C75.7859 10.9423 75.4028 10.7933 74.917 10.7933C74.4312 10.7933 74.0388 10.9423 73.7399 11.2402C73.4596 11.5196 73.3195 12.013 73.3195 12.7207V23.2793C73.3195 23.987 73.4596 24.4804 73.7399 24.7598C74.0388 25.0391 74.4312 25.1788 74.917 25.1788C75.4028 25.1788 75.7859 25.0391 76.0661 24.7598C76.3651 24.4804 76.5146 23.987 76.5146 23.2793V20.486H79.4294Z"
      fill="#FF3000"
    />
    <path
      d="M84.4671 27.7765H81.3V8.22346H84.0467V20.5978L85.1678 16.2961L87.6903 8.22346H91.0816V27.7765H88.3069V14.0056L87.0456 18.8101L84.4671 27.7765Z"
      fill="#FF3000"
    />
    <path
      d="M92.7004 27.7765C92.8498 27.4041 92.9433 27.041 92.9806 26.6872C93.018 26.3147 93.0367 25.8864 93.0367 25.4022V22.3855C93.0367 21.3613 93.1768 20.4953 93.4571 19.7877C93.7561 19.0615 94.2979 18.54 95.0827 18.2235C93.7374 17.5903 93.0647 16.2682 93.0647 14.257V12.7207C93.0647 11.2123 93.4197 10.0857 94.1298 9.34078C94.8585 8.5959 96.0263 8.22346 97.6332 8.22346H102.286V27.7765H99.2027V19.8156H98.1377C97.4276 19.8156 96.9138 20.0019 96.5962 20.3743C96.2785 20.7467 96.1197 21.3892 96.1197 22.3017V25.3743C96.1197 25.7654 96.1104 26.0912 96.0917 26.352C96.0917 26.6127 96.073 26.8268 96.0356 26.9944C96.0169 27.162 95.9889 27.3017 95.9515 27.4134C95.9142 27.5251 95.8768 27.6462 95.8394 27.7765H92.7004ZM97.7173 11.0168C97.1754 11.0168 96.7737 11.175 96.5121 11.4916C96.2692 11.8082 96.1477 12.3203 96.1477 13.0279V14.9553C96.1477 15.7374 96.3065 16.2775 96.6242 16.5754C96.9605 16.8734 97.4183 17.0223 97.9975 17.0223H99.2027V11.0168H97.7173Z"
      fill="#FF3000"
    />
    <path
      d="M115.286 15.5L120.286 20.5L125.286 15.5"
      stroke="#1D1D1D"
      stroke-width="2"
      stroke-linecap="square"
    />
  </g>
  <defs>
    <clipPath id="clip0_257_56355">
      <rect width="130.286" height="36" fill="white"/>
    </clipPath>
  </defs>
</svg>
