<svg width="20" height="20" viewBox="0 0 20 20" fill="none" xmlns="http://www.w3.org/2000/svg">
  <path
    d="M5.3252 18.125C4.58352 18.125 3.85849 17.9051 3.24181 17.493C2.62512 17.081 2.14448 16.4953 1.86065 15.8101C1.57682 15.1248 1.50256 14.3708 1.64725 13.6434C1.79195 12.916 2.1491 12.2478 2.67355 11.7234C3.19799 11.1989 3.86618 10.8418 4.59361 10.6971C5.32104 10.5524 6.07504 10.6266 6.76026 10.9105C7.44548 11.1943 8.03115 11.6749 8.44321 12.2916C8.85526 12.9083 9.0752 13.6333 9.0752 14.375C9.0752 15.3696 8.68011 16.3234 7.97685 17.0267C7.27359 17.7299 6.31976 18.125 5.3252 18.125ZM5.3252 11.875C4.83074 11.875 4.34739 12.0216 3.93627 12.2963C3.52515 12.571 3.20472 12.9615 3.0155 13.4183C2.82628 13.8751 2.77677 14.3778 2.87323 14.8627C2.9697 15.3477 3.2078 15.7931 3.55743 16.1428C3.90706 16.4924 4.35252 16.7305 4.83747 16.827C5.32242 16.9234 5.82509 16.8739 6.28191 16.6847C6.73872 16.4955 7.12917 16.175 7.40387 15.7639C7.67857 15.3528 7.8252 14.8695 7.8252 14.375C7.8252 13.712 7.5618 13.0761 7.09296 12.6072C6.62412 12.1384 5.98824 11.875 5.3252 11.875ZM14.7002 18.125C13.9585 18.125 13.2335 17.9051 12.6168 17.493C12.0001 17.081 11.5195 16.4953 11.2356 15.8101C10.9518 15.1248 10.8776 14.3708 11.0223 13.6434C11.1669 12.916 11.5241 12.2478 12.0485 11.7234C12.573 11.1989 13.2412 10.8418 13.9686 10.6971C14.696 10.5524 15.45 10.6266 16.1353 10.9105C16.8205 11.1943 17.4062 11.6749 17.8182 12.2916C18.2303 12.9083 18.4502 13.6333 18.4502 14.375C18.4502 15.3696 18.0551 16.3234 17.3518 17.0267C16.6486 17.7299 15.6948 18.125 14.7002 18.125ZM14.7002 11.875C14.2057 11.875 13.7224 12.0216 13.3113 12.2963C12.9001 12.571 12.5797 12.9615 12.3905 13.4183C12.2013 13.8751 12.1518 14.3778 12.2482 14.8627C12.3447 15.3477 12.5828 15.7931 12.9324 16.1428C13.2821 16.4924 13.7275 16.7305 14.2125 16.827C14.6974 16.9234 15.2001 16.8739 15.6569 16.6847C16.1137 16.4955 16.5042 16.175 16.7789 15.7639C17.0536 15.3528 17.2002 14.8695 17.2002 14.375C17.2002 13.712 16.9368 13.0761 16.468 12.6072C15.9991 12.1384 15.3632 11.875 14.7002 11.875Z"
    fill="#F840D7"/>
  <path d="M8.4502 13.7563H11.5752V15.0063H8.4502V13.7563Z" fill="#F840D7"/>
  <path
    d="M5.3252 17.5063C7.05109 17.5063 8.4502 16.1072 8.4502 14.3813C8.4502 12.6555 7.05109 11.2563 5.3252 11.2563C3.59931 11.2563 2.2002 12.6555 2.2002 14.3813C2.2002 16.1072 3.59931 17.5063 5.3252 17.5063Z"
    fill="#F840D7"/>
  <path
    d="M14.7002 17.5063C16.4261 17.5063 17.8252 16.1072 17.8252 14.3813C17.8252 12.6555 16.4261 11.2563 14.7002 11.2563C12.9743 11.2563 11.5752 12.6555 11.5752 14.3813C11.5752 16.1072 12.9743 17.5063 14.7002 17.5063Z"
    fill="#F840D7"/>
  <path
    d="M18.1377 8.13135H1.8877C1.54252 8.13135 1.2627 8.41117 1.2627 8.75635C1.2627 9.10153 1.54252 9.38135 1.8877 9.38135H18.1377C18.4829 9.38135 18.7627 9.10153 18.7627 8.75635C18.7627 8.41117 18.4829 8.13135 18.1377 8.13135Z"
    fill="#F840D7"/>
  <path
    d="M17.025 9.375H3L4.25 3.28125C4.32821 2.89044 4.53748 2.53803 4.8432 2.28232C5.14892 2.0266 5.53277 1.88291 5.93125 1.875H14.0875C14.4914 1.87579 14.8826 2.01624 15.1947 2.27255C15.5068 2.52886 15.7207 2.88524 15.8 3.28125L17.025 9.375ZM4.525 8.125H15.5L14.575 3.525C14.552 3.41248 14.491 3.3113 14.4023 3.23846C14.3135 3.16561 14.2023 3.12555 14.0875 3.125H5.93125C5.81641 3.12555 5.70527 3.16561 5.61649 3.23846C5.52771 3.3113 5.46672 3.41248 5.44375 3.525L4.525 8.125Z"
    fill="#F840D7"/>
  <path
    d="M16.25 8.75H3.75L4.83125 3.40625C4.88176 3.15141 5.01892 2.92191 5.21944 2.75672C5.41995 2.59152 5.67145 2.50081 5.93125 2.5H14.0875C14.3473 2.50081 14.5988 2.59152 14.7993 2.75672C14.9998 2.92191 15.137 3.15141 15.1875 3.40625L16.25 8.75Z"
    fill="#F840D7"/>
</svg>
