<svg width="25" height="24" viewBox="0 0 25 24" fill="none" xmlns="http://www.w3.org/2000/svg">
  <path
    d="M0.875 3.6525C0.875 1.63528 2.51028 0 4.5275 0H21.2225C23.2397 0 24.875 1.63528 24.875 3.6525V20.3475C24.875 22.3647 23.2397 24 21.2225 24H4.5275C2.51028 24 0.875 22.3647 0.875 20.3475V3.6525Z"
    fill="#FF3000"/>
  <path
    d="M18.9524 19.875C17.8811 19.875 17.143 19.2878 17.143 17.4687V17.0774H18.3334V17.4689C18.3334 18.436 18.5953 18.7007 18.9524 18.7007C19.3094 18.7007 19.5596 18.436 19.5596 17.9869C19.5596 17.4227 19.4763 17.112 18.6429 16.5247C17.6667 15.8455 17.2143 15.1201 17.2143 14.1876C17.2143 13.0017 17.8571 12.2879 18.9524 12.2879C19.7142 12.2879 20.7262 12.5183 20.7262 14.4523V14.9014H19.5358V14.4523C19.5358 13.6925 19.2859 13.4392 18.9524 13.4392C18.5953 13.4392 18.4047 13.6925 18.4047 14.1414C18.4047 14.6019 18.5118 14.9818 19.3452 15.6036C20.381 16.375 20.75 16.9852 20.75 17.9867C20.75 18.9882 20.2737 19.875 18.9524 19.875ZM14.8928 19.875C13.8215 19.875 13.0834 19.3799 13.0834 17.4687V17.0774H14.2738V17.4689C14.2738 18.436 14.5358 18.7007 14.8928 18.7007C15.2498 18.7007 15.5 18.436 15.5 17.9869C15.5 17.4227 15.4167 17.112 14.5833 16.5247C13.6071 15.8455 13.1547 15.1201 13.1547 14.1876C13.1547 13.0017 13.7975 12.2879 14.8928 12.2879C15.6546 12.2879 16.6666 12.5183 16.6666 14.4523V14.9014H15.4762V14.4523C15.4762 13.6925 15.2263 13.4392 14.8928 13.4392C14.5358 13.4392 14.3451 13.6925 14.3451 14.1414C14.3451 14.6019 14.4522 14.9818 15.2856 15.6036C16.3214 16.375 16.6904 16.9852 16.6904 17.9867C16.6904 18.9882 16.2143 19.875 14.8928 19.875ZM18.9524 11.7121C17.8811 11.7121 17.143 11.1248 17.143 9.30574V8.91446H18.3334V9.30595C18.3334 10.2731 18.5953 10.5378 18.9524 10.5378C19.3094 10.5378 19.5596 10.2731 19.5596 9.82401C19.5596 9.25976 19.4763 8.94906 18.6429 8.36181C17.6667 7.68261 17.2143 6.95721 17.2143 6.02467C17.2143 4.8388 17.8571 4.125 18.9524 4.125C19.7142 4.125 20.7262 4.35534 20.7262 6.28939V6.73847H19.5358V6.28939C19.5358 5.52961 19.2859 5.27628 18.9524 5.27628C18.5953 5.27628 18.4047 5.52961 18.4047 5.97847C18.4047 6.43894 18.5118 6.81883 19.3452 7.44067C20.381 8.21205 20.75 8.82228 20.75 9.82379C20.75 10.8253 20.2737 11.7121 18.9524 11.7121ZM14.8928 11.7121C13.8215 11.7121 13.0834 11.217 13.0834 9.30574V8.91446H14.2738V9.30595C14.2738 10.2731 14.5358 10.5378 14.8928 10.5378C15.2498 10.5378 15.5 10.2731 15.5 9.82401C15.5 9.25976 15.4167 8.94906 14.5833 8.36181C13.6071 7.68261 13.1547 6.95721 13.1547 6.02467C13.1547 4.8388 13.7975 4.125 14.8928 4.125C15.6546 4.125 16.6666 4.35534 16.6666 6.28939V6.73847H15.4762V6.28939C15.4762 5.52961 15.2263 5.27628 14.8928 5.27628C14.5358 5.27628 14.3451 5.52961 14.3451 5.97847C14.3451 6.43894 14.4522 6.81883 15.2856 7.44067C16.3214 8.21205 16.6904 8.82228 16.6904 9.82379C16.6904 10.8253 16.2143 11.7121 14.8928 11.7121ZM6.19064 17.0774H6.42881C6.9527 17.0774 7.21442 16.8241 7.21442 15.6498V14.982C7.21442 13.8077 6.95248 13.5544 6.42881 13.5544H6.19064V17.0774ZM6.19064 19.7598H5.00022V12.4029H6.42881C7.97648 12.4029 8.40506 13.2548 8.40506 14.8668V15.7647C8.40506 17.3765 7.97648 18.2287 6.42881 18.2287H6.19064V19.7598ZM6.42859 7.76319H6.19041V5.39145H6.42859C6.96425 5.39145 7.2142 5.5642 7.2142 6.36997V6.78445C7.21442 7.59043 6.96447 7.76319 6.42859 7.76319ZM8.63101 11.5971L7.71431 8.53457C8.15489 8.17767 8.40483 7.59043 8.40483 6.86524V6.2896C8.40483 4.94258 7.78585 4.24017 6.42859 4.24017H5V11.5971H6.19041V8.91446H6.34527C6.40481 8.91446 6.48813 8.91446 6.61899 8.90286L7.33328 11.5969L8.63101 11.5971ZM9.98805 17.0774L10.5953 13.5544H10.6906L11.2976 17.0774H9.98805ZM11.7501 19.7598H12.9405L11.619 12.4029H9.66679L8.33352 19.7598H9.52393L9.79765 18.2287H11.4882L11.7501 19.7598ZM10.7619 11.7121C9.29754 11.7121 9.02381 10.6414 9.02381 9.34033V4.24017H10.262V9.44412C10.262 10.3537 10.4286 10.5608 10.7619 10.5608C11.0952 10.5608 11.2618 10.3537 11.2618 9.44412V4.24017H12.5V9.34055C12.5 10.6414 12.2262 11.7121 10.7619 11.7121Z"
    fill="white"/>
</svg>
