<svg width="25" height="24" viewBox="0 0 25 24" fill="none" xmlns="http://www.w3.org/2000/svg">
  <path
    d="M14.1573 10.8125L13.6953 10.1594L14.1573 10.8125ZM10.0927 13.6875L9.63075 13.0343L10.0927 13.6875ZM6.20484 17.1078L5.42037 16.9509V16.9509L6.20484 17.1078ZM11.375 20.3H12.175V18.7H11.375V20.3ZM6.79136 18.9527L6.24151 19.5338H6.24151L6.79136 18.9527ZM13.875 3.7H13.075V5.3H13.875V3.7ZM17.4586 5.04729L16.9088 5.62837V5.62837L17.4586 5.04729ZM18.0452 6.89221L17.2607 6.73533L17.2607 6.73533L18.0452 6.89221ZM6.46595 2.94857L5.87164 3.48411L6.46595 4.14363L7.06025 3.48411L6.46595 2.94857ZM2.89253 5.65202L2.27352 6.15879L2.89253 5.65202ZM10.0394 5.65202L9.42035 5.14524V5.14524L10.0394 5.65202ZM9.67481 2.44598L10.1703 1.81792V1.81792L9.67481 2.44598ZM6.46909 8.8676L5.95431 9.47997C6.25191 9.73014 6.68628 9.73014 6.98388 9.47997L6.46909 8.8676ZM18.4659 15.9486L17.8716 16.4841L18.4659 17.1436L19.0603 16.4841L18.4659 15.9486ZM14.8925 18.652L14.2735 19.1588L14.8925 18.652ZM22.0394 18.652L21.4203 18.1452V18.1452L22.0394 18.652ZM21.6748 15.446L22.1703 14.8179L21.6748 15.446ZM18.4691 21.8676L17.9543 22.48C18.2519 22.7301 18.6863 22.7301 18.9839 22.48L18.4691 21.8676ZM13.6953 10.1594L9.63075 13.0343L10.5547 14.3406L14.6193 11.4657L13.6953 10.1594ZM9.63075 13.0343C8.39914 13.9055 7.43336 14.5878 6.76059 15.1515C6.42223 15.435 6.13003 15.7113 5.9059 15.9889C5.68228 16.2658 5.49376 16.5839 5.42037 16.9509L6.9893 17.2647C6.99399 17.2412 7.01951 17.1566 7.15079 16.994C7.28156 16.832 7.48511 16.6319 7.78822 16.3779C8.39839 15.8666 9.29849 15.2291 10.5547 14.3406L9.63075 13.0343ZM11.375 18.7C9.83059 18.7 8.87924 18.699 8.23598 18.6355C7.60599 18.5732 7.43771 18.4629 7.34122 18.3716L6.24151 19.5338C6.72339 19.9898 7.32331 20.1531 8.07873 20.2277C8.82089 20.301 9.87218 20.3 11.375 20.3V18.7ZM5.42037 16.9509C5.2314 17.8958 5.54158 18.8715 6.24151 19.5338L7.34122 18.3716C7.04125 18.0878 6.90832 17.6696 6.9893 17.2647L5.42037 16.9509ZM13.875 5.3C15.1549 5.3 15.8371 5.30189 16.2813 5.36134C16.487 5.38887 16.5994 5.4244 16.6727 5.45802C16.7409 5.48934 16.8097 5.53459 16.9088 5.62837L18.0085 4.4662C17.8184 4.28635 17.6071 4.12636 17.3398 4.00375C17.0776 3.88345 16.799 3.81637 16.4936 3.77548C15.9155 3.69811 15.0951 3.7 13.875 3.7V5.3ZM14.6193 11.4657C15.8884 10.5679 16.8634 9.75122 17.5503 9.04178C18.2043 8.36637 18.7028 7.68309 18.8296 7.04909L17.2607 6.73533C17.2313 6.88213 17.0299 7.27917 16.4009 7.92881C15.8048 8.54441 14.9139 9.29744 13.6953 10.1594L14.6193 11.4657ZM16.9088 5.62837C17.2087 5.91222 17.3417 6.33037 17.2607 6.73533L18.8296 7.0491C19.0186 6.10419 18.7084 5.12851 18.0085 4.4662L16.9088 5.62837ZM7.06025 2.41303C6.08472 1.33045 4.23967 0.619017 2.75315 1.82465L3.76101 3.06732C4.3255 2.60949 5.2102 2.75009 5.87164 3.48411L7.06025 2.41303ZM2.75315 1.82465C1.39352 2.92737 1.17918 4.8221 2.27352 6.15879L3.51154 5.14524C2.99521 4.51455 3.06962 3.62806 3.76101 3.06732L2.75315 1.82465ZM10.6584 6.15879C11.7451 4.83136 11.5673 2.92006 10.1703 1.81792L9.1793 3.07405C9.86859 3.61787 9.94426 4.50529 9.42035 5.14524L10.6584 6.15879ZM10.1703 1.81792C8.67319 0.63675 6.85366 1.32325 5.87164 2.41303L7.06025 3.48411C7.7152 2.75729 8.59017 2.60925 9.1793 3.07405L10.1703 1.81792ZM2.27352 6.15879C2.65941 6.63015 3.44271 7.33958 4.15823 7.96111C4.89215 8.59863 5.62987 9.20723 5.95431 9.47997L6.98388 8.25523C6.64418 7.96967 5.92841 7.37942 5.20748 6.75319C4.46815 6.11097 3.79523 5.49175 3.51154 5.14524L2.27352 6.15879ZM6.98388 9.47997C7.30941 9.20632 8.04467 8.59846 8.77746 7.96054C9.49163 7.33884 10.2728 6.62971 10.6584 6.15879L9.42035 5.14524C9.1363 5.49219 8.46444 6.11171 7.72691 6.75375C7.008 7.37959 6.29292 7.97058 5.95431 8.25523L6.98388 9.47997ZM19.0603 15.413C18.0847 14.3305 16.2397 13.619 14.7531 14.8246L15.761 16.0673C16.3255 15.6095 17.2102 15.7501 17.8716 16.4841L19.0603 15.413ZM14.7531 14.8246C13.3935 15.9274 13.1792 17.8221 14.2735 19.1588L15.5115 18.1452C14.9952 17.5146 15.0696 16.6281 15.761 16.0673L14.7531 14.8246ZM22.6584 19.1588C23.7451 17.8314 23.5673 15.9201 22.1703 14.8179L21.1793 16.074C21.8686 16.6179 21.9443 17.5053 21.4203 18.1452L22.6584 19.1588ZM22.1703 14.8179C20.6732 13.6367 18.8537 14.3232 17.8716 15.413L19.0603 16.4841C19.7152 15.7573 20.5902 15.6093 21.1793 16.074L22.1703 14.8179ZM14.2735 19.1588C14.6594 19.6302 15.4427 20.3396 16.1582 20.9611C16.8921 21.5986 17.6299 22.2072 17.9543 22.48L18.9839 21.2552C18.6442 20.9697 17.9284 20.3794 17.2075 19.7532C16.4681 19.111 15.7952 18.4918 15.5115 18.1452L14.2735 19.1588ZM18.9839 22.48C19.3094 22.2063 20.0447 21.5985 20.7775 20.9605C21.4916 20.3388 22.2728 19.6297 22.6584 19.1588L21.4203 18.1452C21.1363 18.4922 20.4644 19.1117 19.7269 19.7537C19.008 20.3796 18.2929 20.9706 17.9543 21.2552L18.9839 22.48Z"
    fill="currentColor"/>
</svg>
